<svg xmlns="http://www.w3.org/2000/svg" width="64" height="64" viewBox="0 0 64 64"><rect width="64" height="64" rx="14" fill="#03182b"/><rect x="1" y="1" width="62" height="62" rx="13" fill="none" stroke="#ffb719"/><g transform="translate(6 5) scale(0.15294117647058825)"><g transform="translate(45 0)"><defs><linearGradient id="gold" x2=".8" y2="1"><stop stop-color="#ffdb55"/><stop offset=".55" stop-color="#ffba19"/><stop offset="1" stop-color="#efa009"/></linearGradient></defs><path fill="url(#gold)" d="M112 8h16v27h27v16h-27v23l64 59v26l45 39v59l-44-17v-48l-18-20v-31l-55-51-55 51v31l-18 20v61L3 281v-83l45-39v-26l64-59V51H85V35h27z"/><path fill="#fff" d="m120 91 16 15v127l-32 6V106z"/><path fill="url(#gold)" d="M-37 324C54 244 173 213 269 280 165 231 61 283-37 324z"/><path fill="#fff" d="M7 324c86-60 174-77 238-35-75-31-147 9-188 35z"/></g></g></svg>