<svg xmlns="http://www.w3.org/2000/svg" width="390" height="844" viewBox="0 0 390 844"><rect width="390" height="844" fill="#03182b"/><g transform="translate(153 45) scale(0.24705882352941178)"><g transform="translate(45 0)"><defs><linearGradient id="gold" x2=".8" y2="1"><stop stop-color="#ffdb55"/><stop offset=".55" stop-color="#ffba19"/><stop offset="1" stop-color="#efa009"/></linearGradient></defs><path fill="url(#gold)" d="M112 8h16v27h27v16h-27v23l64 59v26l45 39v59l-44-17v-48l-18-20v-31l-55-51-55 51v31l-18 20v61L3 281v-83l45-39v-26l64-59V51H85V35h27z"/><path fill="#fff" d="m120 91 16 15v127l-32 6V106z"/><path fill="url(#gold)" d="M-37 324C54 244 173 213 269 280 165 231 61 283-37 324z"/><path fill="#fff" d="M7 324c86-60 174-77 238-35-75-31-147 9-188 35z"/></g></g><text x="77" y="170" font-family="Arial,sans-serif" font-size="38" font-weight="750" letter-spacing="-1.9000000000000001" fill="#fff">Simple<tspan fill="#ffb719">Church</tspan></text><text x="116" y="206" font-family="Arial,sans-serif" font-size="14" fill="#ffb719">ÁREA DO MEMBRO</text><text x="53" y="240" font-family="Arial,sans-serif" font-size="16" fill="#b5c6d7">Sua comunidade, mais perto de você.</text><rect x="24" y="281" width="342" height="390" rx="20" fill="#0d263e" stroke="#304760"/><rect x="44" y="303" width="302" height="44" rx="9" fill="#071b2e"/><text x="94" y="332" font-family="Arial,sans-serif" font-size="16" fill="#ffb719">CPF</text><text x="238" y="332" font-family="Arial,sans-serif" font-size="16" fill="#b5c6d7">E-mail</text><text x="44" y="393" font-family="Arial,sans-serif" font-size="18" fill="#fff">CPF</text><rect x="44" y="407" width="302" height="58" rx="10" fill="#071b2e" stroke="#304760"/><text x="62" y="443" font-family="Arial,sans-serif" font-size="18" fill="#b5c6d7">000.000.000-00</text><text x="44" y="505" font-family="Arial,sans-serif" font-size="18" fill="#fff">Senha</text><rect x="44" y="519" width="302" height="58" rx="10" fill="#071b2e" stroke="#304760"/><text x="62" y="555" font-family="Arial,sans-serif" font-size="18" fill="#b5c6d7">••••••••</text><rect x="44" y="592" width="302" height="58" rx="10" fill="#ffb719"/><text x="171" y="629" font-family="Arial,sans-serif" font-size="20" fill="#03182b">Entrar</text><text x="55" y="725" font-family="Arial,sans-serif" font-size="14" fill="#b5c6d7">Primeiro acesso? Use o convite enviado</text><text x="76" y="749" font-family="Arial,sans-serif" font-size="14" fill="#b5c6d7">pela secretaria da sua igreja.</text></svg>